<?xml version="1.0" standalone="no"?>
<!DOCTYPE svg PUBLIC "-//W3C//DTD SVG 20010904//EN"
 "http://www.w3.org/TR/2001/REC-SVG-20010904/DTD/svg10.dtd">
<svg version="1.0" xmlns="http://www.w3.org/2000/svg"
 width="280.000000pt" height="280.000000pt" viewBox="0 0 280.000000 280.000000"
 preserveAspectRatio="xMidYMid meet">
<metadata>
Created by potrace 1.11, written by Peter Selinger 2001-2013
</metadata>
<g transform="translate(0.000000,280.000000) scale(0.100000,-0.100000)"
fill="#000000" stroke="none">
<path d="M0 1400 l0 -1400 1400 0 1400 0 0 1400 0 1400 -1400 0 -1400 0 0
-1400z m2700 0 l0 -1300 -1300 0 -1300 0 0 1300 0 1300 1300 0 1300 0 0 -1300z"/>
<path d="M250 2215 l0 -335 540 0 540 0 0 335 0 335 -540 0 -540 0 0 -335z"/>
<path d="M1470 2215 l0 -335 540 0 540 0 0 335 0 335 -540 0 -540 0 0 -335z"/>
<path d="M250 1400 l0 -340 540 0 540 0 0 340 0 340 -540 0 -540 0 0 -340z"/>
<path d="M1470 1400 l0 -340 540 0 540 0 0 340 0 340 -540 0 -540 0 0 -340z"/>
<path d="M250 585 l0 -335 540 0 540 0 0 335 0 335 -540 0 -540 0 0 -335z"/>
<path d="M1470 585 l0 -335 540 0 540 0 0 335 0 335 -540 0 -540 0 0 -335z"/>
</g>
</svg>
